PathFileType	4	(X/Y/Z)	C:/Users/opensim2020/Desktop/walking_exp_matlab/subject06_cal10_run.trc																																																																																																																																																	
DataRate	CameraRate	NumFrames	NumMarkers	Units	OrigDataRate	OrigDataStartFrame	OrigNumFrames																																																																																																																																													
100	100	9	49	mm	100	169	118																																																																																																																																													
Frame#	Time	LKNE			RTIB			RFRM			RWRA			LTHI			RKNE			RELB			RFHD			LWRA			RUPA			STRN			RASI			CLAV			RSHO			LASI			RTHI			RBHD			LBHD			C7			RWRB			RFIN			RTOE			LSHO			RBAK			LTIB			RANK			LFIN			LANK			RHEE			T10			LHEE			LTOE			LFHD			LPSI			RPSI			LUPA			LELB			LFRM			LWRB			*39			*40			*41			*42			*43			*44			*45			*46			*47			*48		
		X1	Y1	Z1	X2	Y2	Z2	X3	Y3	Z3	X4	Y4	Z4	X5	Y5	Z5	X6	Y6	Z6	X7	Y7	Z7	X8	Y8	Z8	X9	Y9	Z9	X10	Y10	Z10	X11	Y11	Z11	X12	Y12	Z12	X13	Y13	Z13	X14	Y14	Z14	X15	Y15	Z15	X16	Y16	Z16	X17	Y17	Z17	X18	Y18	Z18	X19	Y19	Z19	X20	Y20	Z20	X21	Y21	Z21	X22	Y22	Z22	X23	Y23	Z23	X24	Y24	Z24	X25	Y25	Z25	X26	Y26	Z26	X27	Y27	Z27	X28	Y28	Z28	X29	Y29	Z29	X30	Y30	Z30	X31	Y31	Z31	X32	Y32	Z32	X33	Y33	Z33	X34	Y34	Z34	X35	Y35	Z35	X36	Y36	Z36	X37	Y37	Z37	X38	Y38	Z38	X39	Y39	Z39	X40	Y40	Z40	X41	Y41	Z41	X42	Y42	Z42	X43	Y43	Z43	X44	Y44	Z44	X45	Y45	Z45	X46	Y46	Z46	X47	Y47	Z47	X48	Y48	Z48	X49	Y49	Z49
																																																																																																																																																				
1	0	110.42571	453.98178	1975.901	335.11255	360.9826	2223.61133	520.78979	1000.10638	2014.0769	453.61053	907.20776	1930.76099	77.13312	606.2395	2022.3042	352.61984	437.51413	1997.65796	520.87354	1113.28955	2041.74927	285.28537	1555.573	1763.53662	-11.24464	926.05664	1893.24463	487.27719	1215.93701	1998.46851	219.05807	1099.62061	1865.74182	352.68781	888.75488	1973.13269	213.59792	1281.08057	1839.87378	368.45612	1343.18677	1875.96338	136.89833	900.68073	1977.44275	382.62289	560.28412	2024.02844	271.93066	1527.97119	1901.15869	142.98642	1529.07617	1890.93298	205.19208	1388.15381	1925.54358	495.21246	875.25446	1971.00745	491.69983	839.11487	1903.93445	295.42047	184.50981	2387.46558	52.02842	1326.18152	1886.44043	297.60306	1264.17334	2047.64685	130.72911	226.34602	2086.0564	293.82593	335.64423	2403.18652	-42.78619	849.25195	1850.46155	185.39116	82.19856	2167.14111	248.89128	365.62366	2440.64233	248.34776	1100.0271	2075.23584	226.4713	86.37092	2217.51025	209.86263	32.11764	2037.94006	154.20639	1561.61206	1750.72351	167.70949	970.65509	2120.23877	334.68423	952.19409	2109.68848	-56.18543	1183.57678	1988.64246	-94.04105	1104.08826	2047.81189	-96.38201	981.98938	1982.92456	-58.67274	885.02032	1930.57532							202.99994	-1848.59473	1618.06653																					 
2	0.01	110.19695	445.8428	1959.65503	338.78986	357.72308	2158.78906	523.37427	997.18152	1996.3905	461.30255	900.19696	1914.80249	76.81812	600.79956	2002.0741	354.11469	440.93106	1936.71667	520.79742	1110.94995	2021.05591	286.72729	1552.20203	1736.98389	-2.91445	926.83691	1844.87976	486.03784	1213.23535	1976.33069	220.01183	1094.67786	1834.95251	351.66537	882.37604	1943.71472	215.13504	1276.60571	1809.67358	369.70581	1338.03284	1849.72351	136.53249	893.92072	1949.19141	384.76041	560.92224	1973.74146	272.1702	1522.91296	1874.16797	143.34251	1524.17212	1862.91895	204.45219	1383.65405	1896.13391	502.13281	870.51221	1957.61194	503.35037	832.88434	1892.00061	299.17444	178.74324	2314.90479	51.72715	1320.73145	1853.57043	293.39407	1258.29858	2020.09766	131.16403	222.87045	2083.08887	297.98181	328.1149	2337.93262	-31.97374	853.32819	1796.72559	185.52409	82.2319	2165.86133	253.50026	356.79236	2377.21997	246.6758	1092.76794	2046.08215	222.39993	84.9369	2221.54541	210.09023	31.96713	2038.78088	155.5815	1558.56909	1723.41956	167.21515	964.86029	2091.89844	333.93375	946.33997	2080.97046	-56.46331	1174.60596	1948.04834	-96.34578	1093.61145	2005.50098	-92.25234	975.70648	1932.82324	-50.57649	883.16412	1877.48376							203.71753	-1822.15857	1613.59473																					 
3	0.02	108.95737	439.33353	1946.0343	342.22913	354.97711	2092.99634	525.83942	998.48901	1978.12476	468.28143	898.82434	1897.82129	75.73299	597.04395	1981.60144	355.27396	448.24091	1875.90381	521.20862	1112.84705	2001.42346	288.42108	1549.66003	1710.06042	6.18631	932.63177	1795.70996	484.77704	1214.11536	1955.12488	221.15343	1090.78015	1804.07251	351.07224	877.43243	1913.89148	216.64323	1273.37512	1779.52197	370.7446	1334.10034	1823.09924	136.11301	888.46411	1920.58582	386.85919	564.17151	1923.40112	272.6976	1518.76355	1846.75354	144.0386	1520.15796	1834.46191	204.09969	1379.86841	1866.77234	507.45337	870.26593	1943.03796	513.14087	832.24463	1878.47083	303.01642	171.02783	2241.11206	52.28231	1317.2168	1820.23718	289.61108	1253.69727	1991.8894	129.68048	220.9576	2077.33032	302.22571	318.63678	2271.44727	-19.09992	862.09351	1743.14392	184.64963	82.49436	2165.68579	257.2092	345.04935	2313.43701	244.52531	1089.18677	2016.02844	222.10915	87.52431	2217.75049	210.4514	32.18506	2037.43579	157.2363	1556.12036	1695.49402	167.03262	960.41168	2062.9751	333.29474	942.79431	2051.28931	-56.50338	1169.15076	1908.88782	-97.50494	1086.10327	1962.11963	-87.39304	972.49054	1884.25293	-40.72279	885.81067	1823.86011							204.67451	-1795.25916	1609.92896																					 
4	0.03	107.10651	433.54654	1933.77466	344.97708	353.31732	2026.68176	528.0658	1003.24768	1960.77271	473.84244	902.88116	1879.29333	75.09317	593.45612	1961.76001	355.96942	458.92242	1815.68506	522.13318	1118.21216	1982.94653	290.37225	1548.24121	1682.40906	16.07053	943.48926	1746.51941	483.39706	1217.36304	1934.04443	222.26671	1088.37646	1773.31799	351.19919	874.42957	1883.91565	218.31854	1271.38599	1749.25928	371.52847	1331.8988	1796.06677	135.63763	885.0174	1889.88428	388.33276	570.27057	1873.2655	273.6358	1515.89209	1818.70056	145.12053	1517.39246	1805.56482	204.21243	1377.11926	1837.44287	511.22205	874.72949	1926.31152	520.15924	836.6922	1862.64111	306.35056	161.39673	2165.84985	53.72047	1315.74609	1786.42017	286.1683	1250.20398	1963.11157	127.9678	219.34036	2071.06714	305.96167	307.24295	2203.49243	-4.30745	875.9306	1689.323	182.2083	84.58188	2163.20483	261.54022	331.45474	2247.41187	241.98781	1087.12476	1985.48633	217.2471	88.62775	2219.56323	209.62195	31.87885	2039.09058	159.03886	1554.80762	1667.24097	166.80063	957.5918	2032.91418	332.64169	940.43262	2020.23853	-56.84867	1165.95605	1870.04578	-98.16713	1080.81189	1918.03748	-82.70812	973.66656	1835.19714	-31.89793	893.94629	1768.20959							205.87875	-1767.6908	1607.48059																					 
5	0.04	105.18266	428.9458	1921.38257	347.32443	352.71481	1960.05151	529.94037	1010.95325	1943.54834	477.75085	911.45667	1859.01868	74.52955	589.97748	1941.72351	356.08179	473.17206	1757.59399	522.63104	1126.38928	1964.69043	292.5687	1548.2146	1653.81262	25.76967	957.96356	1700.14014	481.67599	1223.44812	1912.83789	223.41588	1087.68738	1742.35876	350.57739	873.83606	1853.79248	220.43645	1270.79773	1718.57629	372.38013	1331.91284	1768.95679	133.3967	882.58826	1860.13293	389.21844	579.43872	1823.64746	275.07202	1514.68335	1789.85339	146.63075	1516.23901	1776.0531	204.66226	1376.02466	1807.70618	514.25171	883.12854	1907.51819	524.30829	845.51025	1843.21069	308.89999	153.20134	2084.51929	55.64649	1316.19214	1752.48462	282.987	1248.11597	1933.78333	126.93356	218.03391	2064.70459	308.94839	294.48456	2134.26123	11.33812	894.29602	1637.19873	181.15894	85.94193	2164.52271	265.93158	315.80484	2179.73267	239.33167	1085.44592	1954.54333	213.34734	94.7685	2214.34155	209.9016	31.98875	2037.76953	161.15488	1554.89355	1638.04468	166.31192	955.91846	2001.94812	331.79794	939.95129	1988.5697	-56.76079	1165.13379	1830.94946	-99.19534	1078.33557	1874.98315	-75.97545	976.98438	1787.58801	-19.73296	905.05524	1716.1803							207.46187	-1739.20752	1606.5697																					 
6	0.05	103.66377	425.84299	1908.97778	348.53183	353.4382	1893.94897	530.94073	1021.65155	1924.80225	479.81598	923.12347	1836.76501	74.46091	587.41138	1922.04614	355.89511	490.97308	1701.97583	522.54602	1137.17432	1945.95667	294.94397	1549.91052	1624.28784	35.97441	975.61285	1655.1947	479.48996	1231.96582	1890.77271	224.93567	1089.00732	1710.96375	350.07245	876.08618	1821.74719	222.86987	1272.19543	1687.41113	373.49576	1334.26489	1741.90405	131.71455	882.13086	1828.0708	390.00876	591.27625	1775.05884	276.98376	1515.44495	1760.08057	148.63609	1517.11206	1745.88489	205.22777	1376.96936	1777.27283	516.46851	894.82507	1885.74365	526.32953	857.60596	1820.40466	310.49408	144.27979	2001.83325	57.73756	1318.2301	1718.46521	280.16312	1247.89099	1903.85852	126.05531	218.31546	2057.89673	310.97974	281.00006	2063.67554	27.29967	916.5791	1587.30383	180.62096	88.60297	2164.99902	268.14221	298.88586	2111.15356	236.44467	1085.18335	1922.90588	217.03409	102.50024	2210.04395	209.62122	31.92658	2037.44836	163.39644	1556.71448	1608.30371	165.39639	955.20557	1969.99719	330.68796	941.24469	1956.1532	-56.13356	1166.0686	1791.40845	-99.45859	1077.90771	1831.27747	-69.54987	984.25146	1739.24719	-8.29419	919.42749	1665.27222							209.5674	-1709.80945	1607.57593																					 
7	0.06	102.44056	426.16138	1893.46594	349.0528	355.67914	1828.96448	530.74847	1035.22217	1903.34314	479.88779	937.02612	1813.79236	74.6945	586.9729	1901.20581	355.65558	510.68307	1649.06799	521.51068	1149.75635	1925.79077	297.47266	1553.3833	1593.69861	45.85465	995.58118	1612.24109	477.2963	1242.17065	1867.30774	227.18361	1092.37109	1679.02588	349.21548	880.86273	1787.95056	225.85966	1275.67224	1655.89954	374.65042	1338.79834	1714.61243	128.48479	880.5152	1796.11951	390.44812	605.2605	1728.13892	279.34912	1518.40503	1729.35413	150.96675	1520.30615	1715.14636	205.91074	1379.92029	1746.04333	517.47272	908.71082	1861.29346	526.41284	872.12671	1795.0127	311.06992	137.49487	1917.28943	60.11544	1321.97437	1684.05774	277.73538	1249.81104	1873.27478	125.22791	221.29552	2050.52734	311.74643	267.48645	1991.78662	42.82847	942.42932	1539.75391	178.34341	93.94802	2161.38379	269.25848	281.10437	2040.91479	233.08784	1086.96106	1890.35425	210.51004	108.39888	2208.35693	209.05566	32.67835	2035.21497	165.84364	1560.35815	1577.69592	163.82654	955.70428	1936.7428	329.08691	944.4649	1923.14124	-55.12775	1168.66846	1751.46924	-99.31245	1080.09387	1788.45044	-62.38136	994.5968	1692.21594	5.26364	936.77344	1617.42957							212.11427	-1679.33472	1610.77026																					 
8	0.07	104.19062	425.42978	1885.00073	349.10928	359.10825	1765.13257	529.41919	1050.36499	1879.31848	478.43866	952.48187	1789.70618	75.34569	589.16962	1878.3833	355.24854	531.38318	1599.38574	519.81317	1163.4989	1903.6709	300.02637	1558.58252	1562.03271	55.37202	1017.29431	1571.23315	475.57156	1253.42786	1842.4873	229.8286	1097.74744	1646.3667	348.30548	887.78253	1751.91321	228.94197	1281.05664	1624.10498	375.81012	1344.97937	1686.44531	125.90665	883.23773	1762.18713	390.52502	620.66296	1682.55774	282.10977	1523.57349	1697.66565	153.69872	1525.59607	1683.67188	206.8347	1384.8208	1714.23889	517.83105	924.26385	1835.63293	524.78625	887.92072	1767.72046	310.38159	132.60144	1831.76868	62.81289	1327.27588	1649.23425	275.62827	1253.68799	1842.00427	124.02695	226.6353	2043.54065	311.46591	254.50793	1918.64856	57.86845	969.24878	1495.06787	174.30383	103.19705	2151.58496	268.97397	263.61731	1969.01379	229.41135	1090.49487	1856.87866	210.98923	120.32837	2200.4873	208.82973	31.83963	2037.68396	168.32896	1565.65308	1546.36279	161.4744	957.65051	1901.86609	326.7771	949.39813	1889.43713	-53.61721	1172.80945	1711.11792	-98.51311	1084.24561	1745.82593	-55.10111	1007.30383	1646.54321	17.09904	957.4942	1570.66211							214.92139	-1647.84192	1615.96521																					 
9	0.08	104.84068	430.38486	1870.34021	348.64993	363.01877	1702.88733	527.16223	1066.01184	1853.505	475.97516	968.76715	1763.59375	76.10833	593.69452	1853.11108	355.12711	552.02588	1552.97913	517.64496	1177.66248	1879.65857	302.61389	1565.23669	1529.41821	64.08855	1039.8551	1532.18774	474.17709	1265.38293	1816.18762	232.8078	1104.89478	1612.91162	346.7435	896.42407	1715.0498	231.9128	1288.16125	1591.97791	376.9209	1352.63928	1657.56921	124.34118	886.82159	1726.13196	390.59229	637.17651	1638.48523	285.1492	1530.64917	1665.23608	156.70354	1532.66602	1651.57788	208.02602	1391.3075	1682.09033	516.20337	940.31415	1808.18323	521.92316	904.31238	1739.33948	308.4718	129.63432	1746.31433	65.69948	1334.50769	1614.48499	273.80939	1259.20642	1810.03638	121.5994	234.89905	2035.00232	309.8306	242.39082	1844.62	71.67996	997.61157	1453.07703	172.45895	109.88594	2149.22388	266.76599	246.42998	1895.58801	225.62271	1095.36792	1822.54602	206.67439	132.07417	2192.00244	207.97771	31.19692	2036.91821	170.93161	1572.35083	1514.14331	158.33926	960.96564	1865.30481	324.00665	955.85205	1854.89514	-51.60292	1178.65735	1670.57654	-97.19288	1089.95898	1703.61023	-48.01053	1021.43353	1602.59668	28.17685	979.43073	1525.74194							217.87183	-1615.33411	1622.97095																					 
